<svg width="1600" height="1000" viewBox="0 0 1600 1000" fill="none" xmlns="http://www.w3.org/2000/svg">
  <defs>
    <linearGradient id="gg1" x1="0" y1="0" x2="1600" y2="1000" gradientUnits="userSpaceOnUse">
      <stop stop-color="#1A2230"/>
      <stop offset="1" stop-color="#232D3F"/>
    </linearGradient>
  </defs>
  <rect width="1600" height="1000" fill="url(#gg1)"/>
  <g opacity="0.3" stroke="#DEAA53" stroke-width="1.05">
    <path d="M120 120H560L760 300H1380"/>
    <path d="M-20 280H500L720 470H1620"/>
    <path d="M220 460H690L870 640H1560"/>
    <path d="M40 650H620L820 850H1420"/>
  </g>
  <g opacity="0.24" stroke="#5BC39E" stroke-width="0.95">
    <path d="M-40 860L420 430L770 660L1380 220"/>
    <path d="M200 970L620 540L910 770L1600 260"/>
  </g>
  <g opacity="0.28" fill="#F2C26A">
    <circle cx="280" cy="210" r="3.5"/>
    <circle cx="460" cy="210" r="3.5"/>
    <circle cx="1240" cy="300" r="3.5"/>
    <circle cx="980" cy="640" r="3.5"/>
    <circle cx="1320" cy="690" r="3.5"/>
  </g>
</svg>
