<svg width="1600" height="1000" viewBox="0 0 1600 1000" fill="none" xmlns="http://www.w3.org/2000/svg">
  <defs>
    <linearGradient id="dg1" x1="0" y1="0" x2="1600" y2="1000" gradientUnits="userSpaceOnUse">
      <stop stop-color="#0B1E35"/>
      <stop offset="1" stop-color="#152E4C"/>
    </linearGradient>
  </defs>
  <rect width="1600" height="1000" fill="url(#dg1)"/>
  <g opacity="0.34" stroke="#4FA4EC" stroke-width="1.1">
    <path d="M120 940L640 420L980 640L1540 140"/>
    <path d="M-120 820L520 260L880 520L1700 40"/>
    <path d="M-80 680L540 170L940 450L1710 -40"/>
  </g>
  <g opacity="0.3">
    <circle cx="250" cy="170" r="6" fill="#72C6FF"/>
    <circle cx="510" cy="210" r="4" fill="#72C6FF"/>
    <circle cx="930" cy="140" r="5" fill="#72C6FF"/>
    <circle cx="1180" cy="290" r="5" fill="#72C6FF"/>
    <circle cx="1460" cy="210" r="4" fill="#72C6FF"/>
    <circle cx="1320" cy="560" r="6" fill="#72C6FF"/>
  </g>
  <g opacity="0.26" stroke="#6FE8C1" stroke-width="0.9">
    <path d="M180 920C320 780 460 690 630 650C810 610 1020 520 1320 360"/>
    <path d="M280 990C470 790 630 700 840 640C1070 580 1290 490 1590 300"/>
  </g>
</svg>
