<svg xmlns="http://www.w3.org/2000/svg" viewBox="0 0 256 256" role="img" aria-labelledby="title desc">
  <title>Gaze for All App Icon</title>
  <desc>Brand mark combining an eye, signal arcs, and a focused core to represent accessible communication.</desc>
  <defs>
    <linearGradient id="bgGradient" x1="24" y1="20" x2="228" y2="236" gradientUnits="userSpaceOnUse">
      <stop offset="0" stop-color="#0E5EAB" />
      <stop offset="0.52" stop-color="#0B8CB9" />
      <stop offset="1" stop-color="#18A07D" />
    </linearGradient>
    <linearGradient id="irisGradient" x1="104" y1="102" x2="156" y2="154" gradientUnits="userSpaceOnUse">
      <stop offset="0" stop-color="#D9F4FF" />
      <stop offset="1" stop-color="#8AC9F1" />
    </linearGradient>
    <radialGradient id="coreGlow" cx="0" cy="0" r="1" gradientUnits="userSpaceOnUse" gradientTransform="translate(128 128) rotate(90) scale(68)">
      <stop offset="0" stop-color="#C6EEFF" stop-opacity="0.95" />
      <stop offset="1" stop-color="#C6EEFF" stop-opacity="0" />
    </radialGradient>
  </defs>

  <rect x="12" y="12" width="232" height="232" rx="58" fill="url(#bgGradient)" />
  <rect x="12" y="12" width="232" height="232" rx="58" fill="url(#coreGlow)" />
  <rect x="12" y="12" width="232" height="232" rx="58" fill="none" stroke="#98D9F8" stroke-opacity="0.42" />

  <path d="M48 128C69.2 89.6 96.3 70.4 128 70.4C159.7 70.4 186.8 89.6 208 128C186.8 166.4 159.7 185.6 128 185.6C96.3 185.6 69.2 166.4 48 128Z" fill="#F4FBFF" fill-opacity="0.95" />
  <path d="M60 128C78.3 95.3 101.7 79 128 79C154.3 79 177.7 95.3 196 128C177.7 160.7 154.3 177 128 177C101.7 177 78.3 160.7 60 128Z" fill="none" stroke="#2A7DB2" stroke-opacity="0.4" />

  <circle cx="128" cy="128" r="34" fill="#0C3E67" />
  <circle cx="128" cy="128" r="26" fill="url(#irisGradient)" />
  <circle cx="128" cy="128" r="12" fill="#0A2D4A" />
  <circle cx="120" cy="120" r="7.2" fill="#F2FBFF" fill-opacity="0.9" />

  <path d="M31 128C42.7 106.3 53.5 94.4 67.2 83.2" fill="none" stroke="#B9E8FF" stroke-opacity="0.62" stroke-width="6" stroke-linecap="round" />
  <path d="M225 128C213.3 106.3 202.5 94.4 188.8 83.2" fill="none" stroke="#B9E8FF" stroke-opacity="0.62" stroke-width="6" stroke-linecap="round" />
  <path d="M31 128C42.9 149.8 53.2 161.6 67.1 172.8" fill="none" stroke="#B9E8FF" stroke-opacity="0.36" stroke-width="4.5" stroke-linecap="round" />
  <path d="M225 128C213.1 149.8 202.8 161.6 188.9 172.8" fill="none" stroke="#B9E8FF" stroke-opacity="0.36" stroke-width="4.5" stroke-linecap="round" />

  <path d="M141.6 111.5C136.4 107.9 130.6 106.1 124 106.1C109.8 106.1 98.6 117.3 98.6 131.8C98.6 146.3 109.8 157.5 124 157.5C131.7 157.5 138.3 154.7 143.2 149.4" fill="none" stroke="#083352" stroke-opacity="0.52" stroke-width="6.4" stroke-linecap="round" />
</svg>
